<svg xmlns="http://www.w3.org/2000/svg" viewBox="0 0 720 720" role="img" aria-label="山茶花细节图">
  <rect width="720" height="720" fill="#f6efe5"/>
  <path d="M0 520c110-72 232-108 365-102 138 6 260 44 355 102v200H0z" fill="#e3ebdb"/>
  <path d="M180 552c56-162 112-242 178-242 64 0 124 80 182 242" fill="none" stroke="#507246" stroke-width="18" stroke-linecap="round"/>
  <path d="M290 304c-110-72-194-62-240 30 94 24 172 16 228-30" fill="#6e9558"/>
  <path d="M394 272c92-94 192-110 258-18-80 52-170 58-248 18" fill="#8aad67"/>
  <g transform="translate(368 264)">
    <circle r="78" fill="#ffe9b8"/>
    <circle cx="-48" cy="-10" r="50" fill="#b23f5c"/>
    <circle cx="52" cy="-18" r="50" fill="#cf6678"/>
    <circle cx="-24" cy="48" r="48" fill="#df7a88"/>
    <circle cx="26" cy="50" r="48" fill="#c84f66"/>
  </g>
  <ellipse cx="360" cy="608" rx="154" ry="22" fill="#cfd4c3"/>
</svg>
