<svg xmlns="http://www.w3.org/2000/svg" viewBox="0 0 720 720" role="img" aria-label="桂花树苗细节">
  <rect width="720" height="720" fill="#f4ede2"/>
  <path d="M0 520c104-70 238-108 374-108 132 0 248 34 346 98v210H0z" fill="#e3e8d7"/>
  <path d="M360 194c14 140 16 244 0 340" fill="none" stroke="#755636" stroke-width="18" stroke-linecap="round"/>
  <path d="M312 256c-88-98-186-106-258-20 72 54 160 68 240 46" fill="#729958"/>
  <path d="M404 244c100-74 202-76 266 16-74 44-166 54-242 18" fill="#8eb06a"/>
  <path d="M296 358c-106-70-206-58-266 24 88 44 176 40 252 4" fill="#63894d"/>
  <path d="M416 352c96-50 188-36 250 44-84 32-176 26-244-2" fill="#9ab875"/>
  <g fill="#e0b75f">
    <circle cx="286" cy="304" r="10"/>
    <circle cx="338" cy="340" r="11"/>
    <circle cx="390" cy="286" r="11"/>
    <circle cx="444" cy="344" r="12"/>
    <circle cx="314" cy="400" r="10"/>
    <circle cx="410" cy="416" r="11"/>
  </g>
  <ellipse cx="360" cy="612" rx="140" ry="18" fill="#d0d4c6"/>
</svg>
